<svg xmlns="http://www.w3.org/2000/svg" version="1.1" xmlns:xlink="http://www.w3.org/1999/xlink" xmlns:svgjs="http://svgjs.dev/svgjs" width="2422" height="1080" preserveAspectRatio="none" viewBox="0 0 2422 1080"><g mask="url(&quot;#SvgjsMask1437&quot;)" fill="none"><path d="M152.22 -59.81L288.19 18.69L288.19 175.69L152.22 254.19L16.25 175.69L16.25 18.69zM968.04 411.19L1104.01 489.69L1104.01 646.69L968.04 725.19L832.07 646.69L832.07 489.69zM1104.01 646.69L1239.98 725.19L1239.98 882.19L1104.01 960.69L968.04 882.19L968.04 725.19zM968.04 882.19L1104.01 960.69L1104.01 1117.69L968.04 1196.19L832.07 1117.69L832.07 960.69zM1104.01 1117.69L1239.98 1196.19L1239.98 1353.19L1104.01 1431.69L968.04 1353.19L968.04 1196.19zM1239.98 882.19L1375.95 960.69L1375.95 1117.69L1239.98 1196.19L1104.01 1117.69L1104.01 960.69zM1375.95 1117.69L1511.92 1196.19L1511.92 1353.19L1375.95 1431.69L1239.98 1353.19L1239.98 1196.19zM1511.92 -59.81L1647.89 18.69L1647.89 175.69L1511.92 254.19L1375.95 175.69L1375.95 18.69zM1647.89 1117.69L1783.86 1196.19L1783.86 1353.19L1647.89 1431.69L1511.92 1353.19L1511.92 1196.19zM1783.86 -59.81L1919.83 18.69L1919.83 175.69L1783.86 254.19L1647.89 175.69L1647.89 18.69zM1919.83 646.69L2055.8 725.19L2055.8 882.19L1919.83 960.69L1783.86 882.19L1783.86 725.19zM2191.77 175.69L2327.74 254.19L2327.74 411.19L2191.77 489.69L2055.8 411.19L2055.8 254.19zM2055.8 411.19L2191.77 489.69L2191.77 646.69L2055.8 725.19L1919.83 646.69L1919.83 489.69zM2191.77 646.69L2327.74 725.19L2327.74 882.19L2191.77 960.69L2055.8 882.19L2055.8 725.19zM2463.71 1117.69L2599.68 1196.19L2599.68 1353.19L2463.71 1431.69L2327.74 1353.19L2327.74 1196.19z" stroke="rgba(255, 128, 37, 0.71)" stroke-width="2"></path></g><defs><mask id="SvgjsMask1437"><rect width="2422" height="1080" fill="#ffffff"></rect></mask></defs></svg>