<svg xmlns="http://www.w3.org/2000/svg" version="1.1" xmlns:xlink="http://www.w3.org/1999/xlink" xmlns:svgjs="http://svgjs.dev/svgjs" width="2422" height="1080" preserveAspectRatio="none" viewBox="0 0 2422 1080"><g mask="url(&quot;#SvgjsMask1415&quot;)" fill="none"><path d="M458.03 202.9L606.99 288.9L606.99 460.9L458.03 546.9L309.07 460.9L309.07 288.9zM309.07 460.9L458.03 546.9L458.03 718.9L309.07 804.9L160.11 718.9L160.11 546.9zM755.95 718.9L904.91 804.9L904.91 976.9L755.95 1062.9L606.99 976.9L606.99 804.9zM904.91 -55.1L1053.87 30.9L1053.87 202.9L904.91 288.9L755.95 202.9L755.95 30.9zM904.91 976.9L1053.87 1062.9L1053.87 1234.9L904.91 1320.9L755.95 1234.9L755.95 1062.9zM1202.83 460.9L1351.8 546.9L1351.8 718.9L1202.83 804.9L1053.87 718.9L1053.87 546.9zM1500.76 -55.1L1649.72 30.9L1649.72 202.9L1500.76 288.9L1351.8 202.9L1351.8 30.9zM1947.64 202.9L2096.6 288.9L2096.6 460.9L1947.64 546.9L1798.68 460.9L1798.68 288.9zM2394.52 -55.1L2543.48 30.9L2543.48 202.9L2394.52 288.9L2245.56 202.9L2245.56 30.9z" stroke="rgba(255, 128, 37, 0.6)" stroke-width="2"></path><path d="M440.83 202.9 a17.2 17.2 0 1 0 34.4 0 a17.2 17.2 0 1 0 -34.4 0zM589.79 288.9 a17.2 17.2 0 1 0 34.4 0 a17.2 17.2 0 1 0 -34.4 0zM589.79 460.9 a17.2 17.2 0 1 0 34.4 0 a17.2 17.2 0 1 0 -34.4 0zM440.83 546.9 a17.2 17.2 0 1 0 34.4 0 a17.2 17.2 0 1 0 -34.4 0zM291.87 460.9 a17.2 17.2 0 1 0 34.4 0 a17.2 17.2 0 1 0 -34.4 0zM291.87 288.9 a17.2 17.2 0 1 0 34.4 0 a17.2 17.2 0 1 0 -34.4 0zM440.83 718.9 a17.2 17.2 0 1 0 34.4 0 a17.2 17.2 0 1 0 -34.4 0zM291.87 804.9 a17.2 17.2 0 1 0 34.4 0 a17.2 17.2 0 1 0 -34.4 0zM142.91 718.9 a17.2 17.2 0 1 0 34.4 0 a17.2 17.2 0 1 0 -34.4 0zM142.91 546.9 a17.2 17.2 0 1 0 34.4 0 a17.2 17.2 0 1 0 -34.4 0zM738.75 718.9 a17.2 17.2 0 1 0 34.4 0 a17.2 17.2 0 1 0 -34.4 0zM887.71 804.9 a17.2 17.2 0 1 0 34.4 0 a17.2 17.2 0 1 0 -34.4 0zM887.71 976.9 a17.2 17.2 0 1 0 34.4 0 a17.2 17.2 0 1 0 -34.4 0zM738.75 1062.9 a17.2 17.2 0 1 0 34.4 0 a17.2 17.2 0 1 0 -34.4 0zM589.79 976.9 a17.2 17.2 0 1 0 34.4 0 a17.2 17.2 0 1 0 -34.4 0zM589.79 804.9 a17.2 17.2 0 1 0 34.4 0 a17.2 17.2 0 1 0 -34.4 0zM887.71 -55.1 a17.2 17.2 0 1 0 34.4 0 a17.2 17.2 0 1 0 -34.4 0zM1036.67 30.9 a17.2 17.2 0 1 0 34.4 0 a17.2 17.2 0 1 0 -34.4 0zM1036.67 202.9 a17.2 17.2 0 1 0 34.4 0 a17.2 17.2 0 1 0 -34.4 0zM887.71 288.9 a17.2 17.2 0 1 0 34.4 0 a17.2 17.2 0 1 0 -34.4 0zM738.75 202.9 a17.2 17.2 0 1 0 34.4 0 a17.2 17.2 0 1 0 -34.4 0zM738.75 30.9 a17.2 17.2 0 1 0 34.4 0 a17.2 17.2 0 1 0 -34.4 0zM1036.67 1062.9 a17.2 17.2 0 1 0 34.4 0 a17.2 17.2 0 1 0 -34.4 0zM1036.67 1234.9 a17.2 17.2 0 1 0 34.4 0 a17.2 17.2 0 1 0 -34.4 0zM887.71 1320.9 a17.2 17.2 0 1 0 34.4 0 a17.2 17.2 0 1 0 -34.4 0zM738.75 1234.9 a17.2 17.2 0 1 0 34.4 0 a17.2 17.2 0 1 0 -34.4 0zM1185.63 460.9 a17.2 17.2 0 1 0 34.4 0 a17.2 17.2 0 1 0 -34.4 0zM1334.6 546.9 a17.2 17.2 0 1 0 34.4 0 a17.2 17.2 0 1 0 -34.4 0zM1334.6 718.9 a17.2 17.2 0 1 0 34.4 0 a17.2 17.2 0 1 0 -34.4 0zM1185.63 804.9 a17.2 17.2 0 1 0 34.4 0 a17.2 17.2 0 1 0 -34.4 0zM1036.67 718.9 a17.2 17.2 0 1 0 34.4 0 a17.2 17.2 0 1 0 -34.4 0zM1036.67 546.9 a17.2 17.2 0 1 0 34.4 0 a17.2 17.2 0 1 0 -34.4 0zM1483.56 -55.1 a17.2 17.2 0 1 0 34.4 0 a17.2 17.2 0 1 0 -34.4 0zM1632.52 30.9 a17.2 17.2 0 1 0 34.4 0 a17.2 17.2 0 1 0 -34.4 0zM1632.52 202.9 a17.2 17.2 0 1 0 34.4 0 a17.2 17.2 0 1 0 -34.4 0zM1483.56 288.9 a17.2 17.2 0 1 0 34.4 0 a17.2 17.2 0 1 0 -34.4 0zM1334.6 202.9 a17.2 17.2 0 1 0 34.4 0 a17.2 17.2 0 1 0 -34.4 0zM1334.6 30.9 a17.2 17.2 0 1 0 34.4 0 a17.2 17.2 0 1 0 -34.4 0zM1930.44 202.9 a17.2 17.2 0 1 0 34.4 0 a17.2 17.2 0 1 0 -34.4 0zM2079.4 288.9 a17.2 17.2 0 1 0 34.4 0 a17.2 17.2 0 1 0 -34.4 0zM2079.4 460.9 a17.2 17.2 0 1 0 34.4 0 a17.2 17.2 0 1 0 -34.4 0zM1930.44 546.9 a17.2 17.2 0 1 0 34.4 0 a17.2 17.2 0 1 0 -34.4 0zM1781.48 460.9 a17.2 17.2 0 1 0 34.4 0 a17.2 17.2 0 1 0 -34.4 0zM1781.48 288.9 a17.2 17.2 0 1 0 34.4 0 a17.2 17.2 0 1 0 -34.4 0zM2377.32 -55.1 a17.2 17.2 0 1 0 34.4 0 a17.2 17.2 0 1 0 -34.4 0zM2526.28 30.9 a17.2 17.2 0 1 0 34.4 0 a17.2 17.2 0 1 0 -34.4 0zM2526.28 202.9 a17.2 17.2 0 1 0 34.4 0 a17.2 17.2 0 1 0 -34.4 0zM2377.32 288.9 a17.2 17.2 0 1 0 34.4 0 a17.2 17.2 0 1 0 -34.4 0zM2228.36 202.9 a17.2 17.2 0 1 0 34.4 0 a17.2 17.2 0 1 0 -34.4 0zM2228.36 30.9 a17.2 17.2 0 1 0 34.4 0 a17.2 17.2 0 1 0 -34.4 0z" fill="rgba(255, 128, 37, 0.6)"></path><path d="M134.94 -96.32L270.91 -17.82L270.91 139.18L134.94 217.68L-1.03 139.18L-1.03 -17.82zM270.91 139.18L406.88 217.68L406.88 374.68L270.91 453.18L134.94 374.68L134.94 217.68zM134.94 374.68L270.91 453.18L270.91 610.18L134.94 688.68L-1.03 610.18L-1.03 453.18zM1358.67 1081.18L1494.64 1159.68L1494.64 1316.68L1358.67 1395.18L1222.7 1316.68L1222.7 1159.68zM1494.64 845.68L1630.61 924.18L1630.61 1081.18L1494.64 1159.68L1358.67 1081.18L1358.67 924.18zM1902.55 139.18L2038.52 217.68L2038.52 374.68L1902.55 453.18L1766.58 374.68L1766.58 217.68zM1766.58 374.68L1902.55 453.18L1902.55 610.18L1766.58 688.68L1630.61 610.18L1630.61 453.18zM2174.49 610.18L2310.46 688.68L2310.46 845.68L2174.49 924.18L2038.52 845.68L2038.52 688.68z" stroke="rgba(255, 194, 131, 0.83)" stroke-width="2"></path></g><defs><mask id="SvgjsMask1415"><rect width="2422" height="1080" fill="#ffffff"></rect></mask></defs></svg>