<svg xmlns="http://www.w3.org/2000/svg" version="1.1" xmlns:xlink="http://www.w3.org/1999/xlink" xmlns:svgjs="http://svgjs.dev/svgjs" width="2422" height="1080" preserveAspectRatio="none" viewBox="0 0 2422 1080"><g mask="url(&quot;#SvgjsMask1319&quot;)" fill="none"><path d="M139.69 376.63L226.3 426.63L226.3 526.63L139.69 576.63L53.09 526.63L53.09 426.63zM53.09 826.63L139.69 876.63L139.69 976.63L53.09 1026.63L-33.52 976.63L-33.52 876.63zM226.3 226.63L312.9 276.63L312.9 376.63L226.3 426.63L139.69 376.63L139.69 276.63zM312.9 676.63L399.51 726.63L399.51 826.63L312.9 876.63L226.3 826.63L226.3 726.63zM226.3 826.63L312.9 876.63L312.9 976.63L226.3 1026.63L139.69 976.63L139.69 876.63zM312.9 976.63L399.51 1026.63L399.51 1126.63L312.9 1176.63L226.3 1126.63L226.3 1026.63zM399.51 -73.37L486.12 -23.37L486.12 76.63L399.51 126.63L312.9 76.63L312.9 -23.37zM486.12 376.63L572.72 426.63L572.72 526.63L486.12 576.63L399.51 526.63L399.51 426.63zM399.51 826.63L486.12 876.63L486.12 976.63L399.51 1026.63L312.9 976.63L312.9 876.63zM572.72 -73.37L659.33 -23.37L659.33 76.63L572.72 126.63L486.12 76.63L486.12 -23.37zM659.33 376.63L745.93 426.63L745.93 526.63L659.33 576.63L572.72 526.63L572.72 426.63zM659.33 976.63L745.93 1026.63L745.93 1126.63L659.33 1176.63L572.72 1126.63L572.72 1026.63zM745.93 -73.37L832.54 -23.37L832.54 76.63L745.93 126.63L659.33 76.63L659.33 -23.37zM745.93 226.63L832.54 276.63L832.54 376.63L745.93 426.63L659.33 376.63L659.33 276.63zM832.54 376.63L919.14 426.63L919.14 526.63L832.54 576.63L745.93 526.63L745.93 426.63zM745.93 526.63L832.54 576.63L832.54 676.63L745.93 726.63L659.33 676.63L659.33 576.63zM832.54 676.63L919.14 726.63L919.14 826.63L832.54 876.63L745.93 826.63L745.93 726.63zM919.14 -73.37L1005.75 -23.37L1005.75 76.63L919.14 126.63L832.54 76.63L832.54 -23.37zM919.14 826.63L1005.75 876.63L1005.75 976.63L919.14 1026.63L832.54 976.63L832.54 876.63zM1092.35 -73.37L1178.95 -23.37L1178.95 76.63L1092.35 126.63L1005.75 76.63L1005.75 -23.37zM1178.95 76.63L1265.56 126.63L1265.56 226.63L1178.95 276.63L1092.35 226.63L1092.35 126.63zM1092.35 826.63L1178.95 876.63L1178.95 976.63L1092.35 1026.63L1005.75 976.63L1005.75 876.63zM1352.16 76.63L1438.77 126.63L1438.77 226.63L1352.16 276.63L1265.56 226.63L1265.56 126.63zM1352.16 376.63L1438.77 426.63L1438.77 526.63L1352.16 576.63L1265.56 526.63L1265.56 426.63zM1438.77 -73.37L1525.38 -23.37L1525.38 76.63L1438.77 126.63L1352.16 76.63L1352.16 -23.37zM1525.38 76.63L1611.98 126.63L1611.98 226.63L1525.38 276.63L1438.77 226.63L1438.77 126.63zM1525.38 376.63L1611.98 426.63L1611.98 526.63L1525.38 576.63L1438.77 526.63L1438.77 426.63zM1525.38 676.63L1611.98 726.63L1611.98 826.63L1525.38 876.63L1438.77 826.63L1438.77 726.63zM1438.77 826.63L1525.38 876.63L1525.38 976.63L1438.77 1026.63L1352.16 976.63L1352.16 876.63zM1611.98 -73.37L1698.59 -23.37L1698.59 76.63L1611.98 126.63L1525.38 76.63L1525.38 -23.37zM1698.59 376.63L1785.19 426.63L1785.19 526.63L1698.59 576.63L1611.98 526.63L1611.98 426.63zM1698.59 976.63L1785.19 1026.63L1785.19 1126.63L1698.59 1176.63L1611.98 1126.63L1611.98 1026.63zM1871.8 376.63L1958.4 426.63L1958.4 526.63L1871.8 576.63L1785.19 526.63L1785.19 426.63zM1785.19 826.63L1871.8 876.63L1871.8 976.63L1785.19 1026.63L1698.59 976.63L1698.59 876.63zM1871.8 976.63L1958.4 1026.63L1958.4 1126.63L1871.8 1176.63L1785.19 1126.63L1785.19 1026.63zM2045.01 76.63L2131.61 126.63L2131.61 226.63L2045.01 276.63L1958.4 226.63L1958.4 126.63zM1958.4 526.63L2045.01 576.63L2045.01 676.63L1958.4 726.63L1871.8 676.63L1871.8 576.63zM2045.01 676.63L2131.61 726.63L2131.61 826.63L2045.01 876.63L1958.4 826.63L1958.4 726.63zM2131.61 -73.37L2218.22 -23.37L2218.22 76.63L2131.61 126.63L2045 76.63L2045 -23.37zM2131.61 226.63L2218.22 276.63L2218.22 376.63L2131.61 426.63L2045 376.63L2045 276.63zM2131.61 526.63L2218.22 576.63L2218.22 676.63L2131.61 726.63L2045 676.63L2045 576.63zM2391.43 76.63L2478.03 126.63L2478.03 226.63L2391.43 276.63L2304.82 226.63L2304.82 126.63zM2391.43 376.63L2478.03 426.63L2478.03 526.63L2391.43 576.63L2304.82 526.63L2304.82 426.63z" stroke="rgba(255, 128, 37, 0.78)" stroke-width="2"></path><path d="M129.69 376.63 a10 10 0 1 0 20 0 a10 10 0 1 0 -20 0zM216.3 426.63 a10 10 0 1 0 20 0 a10 10 0 1 0 -20 0zM216.3 526.63 a10 10 0 1 0 20 0 a10 10 0 1 0 -20 0zM129.69 576.63 a10 10 0 1 0 20 0 a10 10 0 1 0 -20 0zM43.09 526.63 a10 10 0 1 0 20 0 a10 10 0 1 0 -20 0zM43.09 426.63 a10 10 0 1 0 20 0 a10 10 0 1 0 -20 0zM43.09 826.63 a10 10 0 1 0 20 0 a10 10 0 1 0 -20 0zM129.69 876.63 a10 10 0 1 0 20 0 a10 10 0 1 0 -20 0zM129.69 976.63 a10 10 0 1 0 20 0 a10 10 0 1 0 -20 0zM43.09 1026.63 a10 10 0 1 0 20 0 a10 10 0 1 0 -20 0zM-43.52 976.63 a10 10 0 1 0 20 0 a10 10 0 1 0 -20 0zM-43.52 876.63 a10 10 0 1 0 20 0 a10 10 0 1 0 -20 0zM216.3 226.63 a10 10 0 1 0 20 0 a10 10 0 1 0 -20 0zM302.9 276.63 a10 10 0 1 0 20 0 a10 10 0 1 0 -20 0zM302.9 376.63 a10 10 0 1 0 20 0 a10 10 0 1 0 -20 0zM129.69 276.63 a10 10 0 1 0 20 0 a10 10 0 1 0 -20 0zM302.9 676.63 a10 10 0 1 0 20 0 a10 10 0 1 0 -20 0zM389.51 726.63 a10 10 0 1 0 20 0 a10 10 0 1 0 -20 0zM389.51 826.63 a10 10 0 1 0 20 0 a10 10 0 1 0 -20 0zM302.9 876.63 a10 10 0 1 0 20 0 a10 10 0 1 0 -20 0zM216.3 826.63 a10 10 0 1 0 20 0 a10 10 0 1 0 -20 0zM216.3 726.63 a10 10 0 1 0 20 0 a10 10 0 1 0 -20 0zM302.9 976.63 a10 10 0 1 0 20 0 a10 10 0 1 0 -20 0zM216.3 1026.63 a10 10 0 1 0 20 0 a10 10 0 1 0 -20 0zM389.51 1026.63 a10 10 0 1 0 20 0 a10 10 0 1 0 -20 0zM389.51 1126.63 a10 10 0 1 0 20 0 a10 10 0 1 0 -20 0zM302.9 1176.63 a10 10 0 1 0 20 0 a10 10 0 1 0 -20 0zM216.3 1126.63 a10 10 0 1 0 20 0 a10 10 0 1 0 -20 0zM389.51 -73.37 a10 10 0 1 0 20 0 a10 10 0 1 0 -20 0zM476.12 -23.37 a10 10 0 1 0 20 0 a10 10 0 1 0 -20 0zM476.12 76.63 a10 10 0 1 0 20 0 a10 10 0 1 0 -20 0zM389.51 126.63 a10 10 0 1 0 20 0 a10 10 0 1 0 -20 0zM302.9 76.63 a10 10 0 1 0 20 0 a10 10 0 1 0 -20 0zM302.9 -23.37 a10 10 0 1 0 20 0 a10 10 0 1 0 -20 0zM476.12 376.63 a10 10 0 1 0 20 0 a10 10 0 1 0 -20 0zM562.72 426.63 a10 10 0 1 0 20 0 a10 10 0 1 0 -20 0zM562.72 526.63 a10 10 0 1 0 20 0 a10 10 0 1 0 -20 0zM476.12 576.63 a10 10 0 1 0 20 0 a10 10 0 1 0 -20 0zM389.51 526.63 a10 10 0 1 0 20 0 a10 10 0 1 0 -20 0zM389.51 426.63 a10 10 0 1 0 20 0 a10 10 0 1 0 -20 0zM476.12 876.63 a10 10 0 1 0 20 0 a10 10 0 1 0 -20 0zM476.12 976.63 a10 10 0 1 0 20 0 a10 10 0 1 0 -20 0zM562.72 -73.37 a10 10 0 1 0 20 0 a10 10 0 1 0 -20 0zM649.33 -23.37 a10 10 0 1 0 20 0 a10 10 0 1 0 -20 0zM649.33 76.63 a10 10 0 1 0 20 0 a10 10 0 1 0 -20 0zM562.72 126.63 a10 10 0 1 0 20 0 a10 10 0 1 0 -20 0zM649.33 376.63 a10 10 0 1 0 20 0 a10 10 0 1 0 -20 0zM735.93 426.63 a10 10 0 1 0 20 0 a10 10 0 1 0 -20 0zM735.93 526.63 a10 10 0 1 0 20 0 a10 10 0 1 0 -20 0zM649.33 576.63 a10 10 0 1 0 20 0 a10 10 0 1 0 -20 0zM649.33 976.63 a10 10 0 1 0 20 0 a10 10 0 1 0 -20 0zM735.93 1026.63 a10 10 0 1 0 20 0 a10 10 0 1 0 -20 0zM735.93 1126.63 a10 10 0 1 0 20 0 a10 10 0 1 0 -20 0zM649.33 1176.63 a10 10 0 1 0 20 0 a10 10 0 1 0 -20 0zM562.72 1126.63 a10 10 0 1 0 20 0 a10 10 0 1 0 -20 0zM562.72 1026.63 a10 10 0 1 0 20 0 a10 10 0 1 0 -20 0zM735.93 -73.37 a10 10 0 1 0 20 0 a10 10 0 1 0 -20 0zM822.54 -23.37 a10 10 0 1 0 20 0 a10 10 0 1 0 -20 0zM822.54 76.63 a10 10 0 1 0 20 0 a10 10 0 1 0 -20 0zM735.93 126.63 a10 10 0 1 0 20 0 a10 10 0 1 0 -20 0zM735.93 226.63 a10 10 0 1 0 20 0 a10 10 0 1 0 -20 0zM822.54 276.63 a10 10 0 1 0 20 0 a10 10 0 1 0 -20 0zM822.54 376.63 a10 10 0 1 0 20 0 a10 10 0 1 0 -20 0zM649.33 276.63 a10 10 0 1 0 20 0 a10 10 0 1 0 -20 0zM909.14 426.63 a10 10 0 1 0 20 0 a10 10 0 1 0 -20 0zM909.14 526.63 a10 10 0 1 0 20 0 a10 10 0 1 0 -20 0zM822.54 576.63 a10 10 0 1 0 20 0 a10 10 0 1 0 -20 0zM822.54 676.63 a10 10 0 1 0 20 0 a10 10 0 1 0 -20 0zM735.93 726.63 a10 10 0 1 0 20 0 a10 10 0 1 0 -20 0zM649.33 676.63 a10 10 0 1 0 20 0 a10 10 0 1 0 -20 0zM909.14 726.63 a10 10 0 1 0 20 0 a10 10 0 1 0 -20 0zM909.14 826.63 a10 10 0 1 0 20 0 a10 10 0 1 0 -20 0zM822.54 876.63 a10 10 0 1 0 20 0 a10 10 0 1 0 -20 0zM735.93 826.63 a10 10 0 1 0 20 0 a10 10 0 1 0 -20 0zM909.14 -73.37 a10 10 0 1 0 20 0 a10 10 0 1 0 -20 0zM995.75 -23.37 a10 10 0 1 0 20 0 a10 10 0 1 0 -20 0zM995.75 76.63 a10 10 0 1 0 20 0 a10 10 0 1 0 -20 0zM909.14 126.63 a10 10 0 1 0 20 0 a10 10 0 1 0 -20 0zM995.75 876.63 a10 10 0 1 0 20 0 a10 10 0 1 0 -20 0zM995.75 976.63 a10 10 0 1 0 20 0 a10 10 0 1 0 -20 0zM909.14 1026.63 a10 10 0 1 0 20 0 a10 10 0 1 0 -20 0zM822.54 976.63 a10 10 0 1 0 20 0 a10 10 0 1 0 -20 0zM1082.35 -73.37 a10 10 0 1 0 20 0 a10 10 0 1 0 -20 0zM1168.95 -23.37 a10 10 0 1 0 20 0 a10 10 0 1 0 -20 0zM1168.95 76.63 a10 10 0 1 0 20 0 a10 10 0 1 0 -20 0zM1082.35 126.63 a10 10 0 1 0 20 0 a10 10 0 1 0 -20 0zM1255.56 126.63 a10 10 0 1 0 20 0 a10 10 0 1 0 -20 0zM1255.56 226.63 a10 10 0 1 0 20 0 a10 10 0 1 0 -20 0zM1168.95 276.63 a10 10 0 1 0 20 0 a10 10 0 1 0 -20 0zM1082.35 226.63 a10 10 0 1 0 20 0 a10 10 0 1 0 -20 0zM1082.35 826.63 a10 10 0 1 0 20 0 a10 10 0 1 0 -20 0zM1168.95 876.63 a10 10 0 1 0 20 0 a10 10 0 1 0 -20 0zM1168.95 976.63 a10 10 0 1 0 20 0 a10 10 0 1 0 -20 0zM1082.35 1026.63 a10 10 0 1 0 20 0 a10 10 0 1 0 -20 0zM1342.16 76.63 a10 10 0 1 0 20 0 a10 10 0 1 0 -20 0zM1428.77 126.63 a10 10 0 1 0 20 0 a10 10 0 1 0 -20 0zM1428.77 226.63 a10 10 0 1 0 20 0 a10 10 0 1 0 -20 0zM1342.16 276.63 a10 10 0 1 0 20 0 a10 10 0 1 0 -20 0zM1342.16 376.63 a10 10 0 1 0 20 0 a10 10 0 1 0 -20 0zM1428.77 426.63 a10 10 0 1 0 20 0 a10 10 0 1 0 -20 0zM1428.77 526.63 a10 10 0 1 0 20 0 a10 10 0 1 0 -20 0zM1342.16 576.63 a10 10 0 1 0 20 0 a10 10 0 1 0 -20 0zM1255.56 526.63 a10 10 0 1 0 20 0 a10 10 0 1 0 -20 0zM1255.56 426.63 a10 10 0 1 0 20 0 a10 10 0 1 0 -20 0zM1428.77 -73.37 a10 10 0 1 0 20 0 a10 10 0 1 0 -20 0zM1515.38 -23.37 a10 10 0 1 0 20 0 a10 10 0 1 0 -20 0zM1515.38 76.63 a10 10 0 1 0 20 0 a10 10 0 1 0 -20 0zM1342.16 -23.37 a10 10 0 1 0 20 0 a10 10 0 1 0 -20 0zM1601.98 126.63 a10 10 0 1 0 20 0 a10 10 0 1 0 -20 0zM1601.98 226.63 a10 10 0 1 0 20 0 a10 10 0 1 0 -20 0zM1515.38 276.63 a10 10 0 1 0 20 0 a10 10 0 1 0 -20 0zM1515.38 376.63 a10 10 0 1 0 20 0 a10 10 0 1 0 -20 0zM1601.98 426.63 a10 10 0 1 0 20 0 a10 10 0 1 0 -20 0zM1601.98 526.63 a10 10 0 1 0 20 0 a10 10 0 1 0 -20 0zM1515.38 576.63 a10 10 0 1 0 20 0 a10 10 0 1 0 -20 0zM1515.38 676.63 a10 10 0 1 0 20 0 a10 10 0 1 0 -20 0zM1601.98 726.63 a10 10 0 1 0 20 0 a10 10 0 1 0 -20 0zM1601.98 826.63 a10 10 0 1 0 20 0 a10 10 0 1 0 -20 0zM1515.38 876.63 a10 10 0 1 0 20 0 a10 10 0 1 0 -20 0zM1428.77 826.63 a10 10 0 1 0 20 0 a10 10 0 1 0 -20 0zM1428.77 726.63 a10 10 0 1 0 20 0 a10 10 0 1 0 -20 0zM1515.38 976.63 a10 10 0 1 0 20 0 a10 10 0 1 0 -20 0zM1428.77 1026.63 a10 10 0 1 0 20 0 a10 10 0 1 0 -20 0zM1342.16 976.63 a10 10 0 1 0 20 0 a10 10 0 1 0 -20 0zM1342.16 876.63 a10 10 0 1 0 20 0 a10 10 0 1 0 -20 0zM1601.98 -73.37 a10 10 0 1 0 20 0 a10 10 0 1 0 -20 0zM1688.59 -23.37 a10 10 0 1 0 20 0 a10 10 0 1 0 -20 0zM1688.59 76.63 a10 10 0 1 0 20 0 a10 10 0 1 0 -20 0zM1688.59 376.63 a10 10 0 1 0 20 0 a10 10 0 1 0 -20 0zM1775.19 426.63 a10 10 0 1 0 20 0 a10 10 0 1 0 -20 0zM1775.19 526.63 a10 10 0 1 0 20 0 a10 10 0 1 0 -20 0zM1688.59 576.63 a10 10 0 1 0 20 0 a10 10 0 1 0 -20 0zM1688.59 976.63 a10 10 0 1 0 20 0 a10 10 0 1 0 -20 0zM1775.19 1026.63 a10 10 0 1 0 20 0 a10 10 0 1 0 -20 0zM1775.19 1126.63 a10 10 0 1 0 20 0 a10 10 0 1 0 -20 0zM1688.59 1176.63 a10 10 0 1 0 20 0 a10 10 0 1 0 -20 0zM1601.98 1126.63 a10 10 0 1 0 20 0 a10 10 0 1 0 -20 0zM1601.98 1026.63 a10 10 0 1 0 20 0 a10 10 0 1 0 -20 0zM1861.8 376.63 a10 10 0 1 0 20 0 a10 10 0 1 0 -20 0zM1948.4 426.63 a10 10 0 1 0 20 0 a10 10 0 1 0 -20 0zM1948.4 526.63 a10 10 0 1 0 20 0 a10 10 0 1 0 -20 0zM1861.8 576.63 a10 10 0 1 0 20 0 a10 10 0 1 0 -20 0zM1775.19 826.63 a10 10 0 1 0 20 0 a10 10 0 1 0 -20 0zM1861.8 876.63 a10 10 0 1 0 20 0 a10 10 0 1 0 -20 0zM1861.8 976.63 a10 10 0 1 0 20 0 a10 10 0 1 0 -20 0zM1688.59 876.63 a10 10 0 1 0 20 0 a10 10 0 1 0 -20 0zM1948.4 1026.63 a10 10 0 1 0 20 0 a10 10 0 1 0 -20 0zM1948.4 1126.63 a10 10 0 1 0 20 0 a10 10 0 1 0 -20 0zM1861.8 1176.63 a10 10 0 1 0 20 0 a10 10 0 1 0 -20 0zM2035.01 76.63 a10 10 0 1 0 20 0 a10 10 0 1 0 -20 0zM2121.61 126.63 a10 10 0 1 0 20 0 a10 10 0 1 0 -20 0zM2121.61 226.63 a10 10 0 1 0 20 0 a10 10 0 1 0 -20 0zM2035.01 276.63 a10 10 0 1 0 20 0 a10 10 0 1 0 -20 0zM1948.4 226.63 a10 10 0 1 0 20 0 a10 10 0 1 0 -20 0zM1948.4 126.63 a10 10 0 1 0 20 0 a10 10 0 1 0 -20 0zM2035.01 576.63 a10 10 0 1 0 20 0 a10 10 0 1 0 -20 0zM2035.01 676.63 a10 10 0 1 0 20 0 a10 10 0 1 0 -20 0zM1948.4 726.63 a10 10 0 1 0 20 0 a10 10 0 1 0 -20 0zM1861.8 676.63 a10 10 0 1 0 20 0 a10 10 0 1 0 -20 0zM2121.61 726.63 a10 10 0 1 0 20 0 a10 10 0 1 0 -20 0zM2121.61 826.63 a10 10 0 1 0 20 0 a10 10 0 1 0 -20 0zM2035.01 876.63 a10 10 0 1 0 20 0 a10 10 0 1 0 -20 0zM1948.4 826.63 a10 10 0 1 0 20 0 a10 10 0 1 0 -20 0zM2121.61 -73.37 a10 10 0 1 0 20 0 a10 10 0 1 0 -20 0zM2208.22 -23.37 a10 10 0 1 0 20 0 a10 10 0 1 0 -20 0zM2208.22 76.63 a10 10 0 1 0 20 0 a10 10 0 1 0 -20 0zM2035 76.63 a10 10 0 1 0 20 0 a10 10 0 1 0 -20 0zM2035 -23.37 a10 10 0 1 0 20 0 a10 10 0 1 0 -20 0zM2208.22 276.63 a10 10 0 1 0 20 0 a10 10 0 1 0 -20 0zM2208.22 376.63 a10 10 0 1 0 20 0 a10 10 0 1 0 -20 0zM2121.61 426.63 a10 10 0 1 0 20 0 a10 10 0 1 0 -20 0zM2035 376.63 a10 10 0 1 0 20 0 a10 10 0 1 0 -20 0zM2035 276.63 a10 10 0 1 0 20 0 a10 10 0 1 0 -20 0zM2121.61 526.63 a10 10 0 1 0 20 0 a10 10 0 1 0 -20 0zM2208.22 576.63 a10 10 0 1 0 20 0 a10 10 0 1 0 -20 0zM2208.22 676.63 a10 10 0 1 0 20 0 a10 10 0 1 0 -20 0zM2035 676.63 a10 10 0 1 0 20 0 a10 10 0 1 0 -20 0zM2035 576.63 a10 10 0 1 0 20 0 a10 10 0 1 0 -20 0zM2381.43 76.63 a10 10 0 1 0 20 0 a10 10 0 1 0 -20 0zM2468.03 126.63 a10 10 0 1 0 20 0 a10 10 0 1 0 -20 0zM2468.03 226.63 a10 10 0 1 0 20 0 a10 10 0 1 0 -20 0zM2381.43 276.63 a10 10 0 1 0 20 0 a10 10 0 1 0 -20 0zM2294.82 226.63 a10 10 0 1 0 20 0 a10 10 0 1 0 -20 0zM2294.82 126.63 a10 10 0 1 0 20 0 a10 10 0 1 0 -20 0zM2381.43 376.63 a10 10 0 1 0 20 0 a10 10 0 1 0 -20 0zM2468.03 426.63 a10 10 0 1 0 20 0 a10 10 0 1 0 -20 0zM2468.03 526.63 a10 10 0 1 0 20 0 a10 10 0 1 0 -20 0zM2381.43 576.63 a10 10 0 1 0 20 0 a10 10 0 1 0 -20 0zM2294.82 526.63 a10 10 0 1 0 20 0 a10 10 0 1 0 -20 0zM2294.82 426.63 a10 10 0 1 0 20 0 a10 10 0 1 0 -20 0z" fill="rgba(255, 128, 37, 0.78)"></path><path d="M44.58 -1.39L119.93 42.11L119.93 129.11L44.58 172.61L-30.77 129.11L-30.77 42.11zM44.58 259.61L119.93 303.11L119.93 390.11L44.58 433.61L-30.77 390.11L-30.77 303.11zM119.93 390.11L195.27 433.61L195.27 520.61L119.93 564.11L44.58 520.61L44.58 433.61zM44.58 520.61L119.93 564.11L119.93 651.11L44.58 694.61L-30.77 651.11L-30.77 564.11zM119.93 651.11L195.27 694.61L195.27 781.61L119.93 825.11L44.58 781.61L44.58 694.61zM44.58 781.61L119.93 825.11L119.93 912.11L44.58 955.61L-30.77 912.11L-30.77 825.11zM270.62 129.11L345.97 172.61L345.97 259.61L270.62 303.11L195.27 259.61L195.27 172.61zM195.27 259.61L270.62 303.11L270.62 390.11L195.27 433.61L119.93 390.11L119.93 303.11zM270.62 651.11L345.97 694.61L345.97 781.61L270.62 825.11L195.27 781.61L195.27 694.61zM345.97 -1.39L421.31 42.11L421.31 129.11L345.97 172.61L270.62 129.11L270.62 42.11zM421.31 129.11L496.66 172.61L496.66 259.61L421.31 303.11L345.97 259.61L345.97 172.61zM345.97 259.61L421.31 303.11L421.31 390.11L345.97 433.61L270.62 390.11L270.62 303.11zM421.31 390.11L496.66 433.61L496.66 520.61L421.31 564.11L345.97 520.61L345.97 433.61zM345.97 520.61L421.31 564.11L421.31 651.11L345.97 694.61L270.62 651.11L270.62 564.11zM345.97 781.61L421.31 825.11L421.31 912.11L345.97 955.61L270.62 912.11L270.62 825.11zM421.31 912.11L496.66 955.61L496.66 1042.61L421.31 1086.11L345.97 1042.61L345.97 955.61zM345.97 1042.61L421.31 1086.11L421.31 1173.11L345.97 1216.61L270.62 1173.11L270.62 1086.11zM496.66 -1.39L572 42.11L572 129.11L496.66 172.61L421.31 129.11L421.31 42.11zM572 129.11L647.35 172.61L647.35 259.61L572 303.11L496.66 259.61L496.66 172.61zM496.66 259.61L572 303.11L572 390.11L496.66 433.61L421.31 390.11L421.31 303.11zM572 390.11L647.35 433.61L647.35 520.61L572 564.11L496.66 520.61L496.66 433.61zM496.66 520.61L572 564.11L572 651.11L496.66 694.61L421.31 651.11L421.31 564.11zM496.66 1042.61L572 1086.11L572 1173.11L496.66 1216.61L421.31 1173.11L421.31 1086.11zM722.7 390.11L798.04 433.61L798.04 520.61L722.7 564.11L647.35 520.61L647.35 433.61zM647.35 520.61L722.7 564.11L722.7 651.11L647.35 694.61L572 651.11L572 564.11zM647.35 1042.61L722.7 1086.11L722.7 1173.11L647.35 1216.61L572 1173.11L572 1086.11zM798.04 -1.39L873.39 42.11L873.39 129.11L798.04 172.61L722.7 129.11L722.7 42.11zM873.39 129.11L948.74 172.61L948.74 259.61L873.39 303.11L798.04 259.61L798.04 172.61zM798.04 259.61L873.39 303.11L873.39 390.11L798.04 433.61L722.7 390.11L722.7 303.11zM873.39 651.11L948.74 694.61L948.74 781.61L873.39 825.11L798.04 781.61L798.04 694.61zM798.04 781.61L873.39 825.11L873.39 912.11L798.04 955.61L722.7 912.11L722.7 825.11zM873.39 912.11L948.74 955.61L948.74 1042.61L873.39 1086.11L798.04 1042.61L798.04 955.61zM948.74 -1.39L1024.08 42.11L1024.08 129.11L948.74 172.61L873.39 129.11L873.39 42.11zM1024.08 129.11L1099.43 172.61L1099.43 259.61L1024.08 303.11L948.74 259.61L948.74 172.61zM948.74 520.61L1024.08 564.11L1024.08 651.11L948.74 694.61L873.39 651.11L873.39 564.11zM1024.08 651.11L1099.43 694.61L1099.43 781.61L1024.08 825.11L948.74 781.61L948.74 694.61zM948.74 781.61L1024.08 825.11L1024.08 912.11L948.74 955.61L873.39 912.11L873.39 825.11zM1024.08 912.11L1099.43 955.61L1099.43 1042.61L1024.08 1086.11L948.74 1042.61L948.74 955.61zM1099.43 -1.39L1174.78 42.11L1174.78 129.11L1099.43 172.61L1024.08 129.11L1024.08 42.11zM1099.43 259.61L1174.78 303.11L1174.78 390.11L1099.43 433.61L1024.08 390.11L1024.08 303.11zM1174.78 651.11L1250.12 694.61L1250.12 781.61L1174.78 825.11L1099.43 781.61L1099.43 694.61zM1099.43 781.61L1174.78 825.11L1174.78 912.11L1099.43 955.61L1024.08 912.11L1024.08 825.11zM1174.78 912.11L1250.12 955.61L1250.12 1042.61L1174.78 1086.11L1099.43 1042.61L1099.43 955.61zM1099.43 1042.61L1174.78 1086.11L1174.78 1173.11L1099.43 1216.61L1024.08 1173.11L1024.08 1086.11zM1250.12 -1.39L1325.47 42.11L1325.47 129.11L1250.12 172.61L1174.78 129.11L1174.78 42.11zM1325.47 129.11L1400.81 172.61L1400.81 259.61L1325.47 303.11L1250.12 259.61L1250.12 172.61zM1250.12 259.61L1325.47 303.11L1325.47 390.11L1250.12 433.61L1174.78 390.11L1174.78 303.11zM1325.47 390.11L1400.81 433.61L1400.81 520.61L1325.47 564.11L1250.12 520.61L1250.12 433.61zM1250.12 781.61L1325.47 825.11L1325.47 912.11L1250.12 955.61L1174.78 912.11L1174.78 825.11zM1325.47 912.11L1400.81 955.61L1400.81 1042.61L1325.47 1086.11L1250.12 1042.61L1250.12 955.61zM1400.81 781.61L1476.16 825.11L1476.16 912.11L1400.81 955.61L1325.47 912.11L1325.47 825.11zM1551.51 259.61L1626.85 303.11L1626.85 390.11L1551.51 433.61L1476.16 390.11L1476.16 303.11zM1626.85 390.11L1702.2 433.61L1702.2 520.61L1626.85 564.11L1551.51 520.61L1551.51 433.61zM1626.85 651.11L1702.2 694.61L1702.2 781.61L1626.85 825.11L1551.51 781.61L1551.51 694.61zM1551.51 781.61L1626.85 825.11L1626.85 912.11L1551.51 955.61L1476.16 912.11L1476.16 825.11zM1626.85 912.11L1702.2 955.61L1702.2 1042.61L1626.85 1086.11L1551.51 1042.61L1551.51 955.61zM1777.55 912.11L1852.89 955.61L1852.89 1042.61L1777.55 1086.11L1702.2 1042.61L1702.2 955.61zM1702.2 1042.61L1777.55 1086.11L1777.55 1173.11L1702.2 1216.61L1626.85 1173.11L1626.85 1086.11zM1928.24 129.11L2003.59 172.61L2003.59 259.61L1928.24 303.11L1852.89 259.61L1852.89 172.61zM1852.89 259.61L1928.24 303.11L1928.24 390.11L1852.89 433.61L1777.55 390.11L1777.55 303.11zM1928.24 912.11L2003.59 955.61L2003.59 1042.61L1928.24 1086.11L1852.89 1042.61L1852.89 955.61zM2003.59 520.61L2078.93 564.11L2078.93 651.11L2003.59 694.61L1928.24 651.11L1928.24 564.11zM2003.59 781.61L2078.93 825.11L2078.93 912.11L2003.59 955.61L1928.24 912.11L1928.24 825.11zM2154.28 -1.39L2229.62 42.11L2229.62 129.11L2154.28 172.61L2078.93 129.11L2078.93 42.11zM2154.28 259.61L2229.62 303.11L2229.62 390.11L2154.28 433.61L2078.93 390.11L2078.93 303.11zM2154.28 781.61L2229.62 825.11L2229.62 912.11L2154.28 955.61L2078.93 912.11L2078.93 825.11zM2154.28 1042.61L2229.62 1086.11L2229.62 1173.11L2154.28 1216.61L2078.93 1173.11L2078.93 1086.11zM2380.32 129.11L2455.66 172.61L2455.66 259.61L2380.32 303.11L2304.97 259.61L2304.97 172.61zM2380.32 390.11L2455.66 433.61L2455.66 520.61L2380.32 564.11L2304.97 520.61L2304.97 433.61zM2380.32 651.11L2455.66 694.61L2455.66 781.61L2380.32 825.11L2304.97 781.61L2304.97 694.61zM2304.97 781.61L2380.32 825.11L2380.32 912.11L2304.97 955.61L2229.62 912.11L2229.62 825.11zM2380.32 912.11L2455.66 955.61L2455.66 1042.61L2380.32 1086.11L2304.97 1042.61L2304.97 955.61zM2455.66 -1.39L2531.01 42.11L2531.01 129.11L2455.66 172.61L2380.32 129.11L2380.32 42.11zM2455.66 259.61L2531.01 303.11L2531.01 390.11L2455.66 433.61L2380.32 390.11L2380.32 303.11zM2531.01 651.11L2606.36 694.61L2606.36 781.61L2531.01 825.11L2455.66 781.61L2455.66 694.61zM2455.66 1042.61L2531.01 1086.11L2531.01 1173.11L2455.66 1216.61L2380.32 1173.11L2380.32 1086.11z" stroke="rgba(255, 212, 168, 0.83)" stroke-width="2"></path></g><defs><mask id="SvgjsMask1319"><rect width="2422" height="1080" fill="#ffffff"></rect></mask></defs></svg>