<svg xmlns="http://www.w3.org/2000/svg" version="1.1" xmlns:xlink="http://www.w3.org/1999/xlink" xmlns:svgjs="http://svgjs.dev/svgjs" width="1920" height="1080" preserveAspectRatio="none" viewBox="0 0 1920 1080"><g mask="url(&quot;#SvgjsMask1117&quot;)" fill="none"><path d="M389.03 980.6L539.72 1067.6L539.72 1241.6L389.03 1328.6L238.33 1241.6L238.33 1067.6zM841.1 719.6L991.8 806.6L991.8 980.6L841.1 1067.6L690.41 980.6L690.41 806.6zM690.41 980.6L841.1 1067.6L841.1 1241.6L690.41 1328.6L539.72 1241.6L539.72 1067.6zM1443.87 197.6L1594.57 284.6L1594.57 458.6L1443.87 545.6L1293.18 458.6L1293.18 284.6zM1293.18 458.6L1443.87 545.6L1443.87 719.6L1293.18 806.6L1142.49 719.6L1142.49 545.6zM1293.18 980.6L1443.87 1067.6L1443.87 1241.6L1293.18 1328.6L1142.49 1241.6L1142.49 1067.6zM1594.57 -63.4L1745.26 23.6L1745.26 197.6L1594.57 284.6L1443.87 197.6L1443.87 23.6zM1895.95 458.6L2046.65 545.6L2046.65 719.6L1895.95 806.6L1745.26 719.6L1745.26 545.6zM1895.95 980.6L2046.65 1067.6L2046.65 1241.6L1895.95 1328.6L1745.26 1241.6L1745.26 1067.6z" stroke="rgba(255, 156, 85, 0.84)" stroke-width="2"></path><path d="M371.63 980.6 a17.4 17.4 0 1 0 34.8 0 a17.4 17.4 0 1 0 -34.8 0zM522.32 1067.6 a17.4 17.4 0 1 0 34.8 0 a17.4 17.4 0 1 0 -34.8 0zM522.32 1241.6 a17.4 17.4 0 1 0 34.8 0 a17.4 17.4 0 1 0 -34.8 0zM371.63 1328.6 a17.4 17.4 0 1 0 34.8 0 a17.4 17.4 0 1 0 -34.8 0zM220.93 1241.6 a17.4 17.4 0 1 0 34.8 0 a17.4 17.4 0 1 0 -34.8 0zM220.93 1067.6 a17.4 17.4 0 1 0 34.8 0 a17.4 17.4 0 1 0 -34.8 0zM823.7 719.6 a17.4 17.4 0 1 0 34.8 0 a17.4 17.4 0 1 0 -34.8 0zM974.4 806.6 a17.4 17.4 0 1 0 34.8 0 a17.4 17.4 0 1 0 -34.8 0zM974.4 980.6 a17.4 17.4 0 1 0 34.8 0 a17.4 17.4 0 1 0 -34.8 0zM823.7 1067.6 a17.4 17.4 0 1 0 34.8 0 a17.4 17.4 0 1 0 -34.8 0zM673.01 980.6 a17.4 17.4 0 1 0 34.8 0 a17.4 17.4 0 1 0 -34.8 0zM673.01 806.6 a17.4 17.4 0 1 0 34.8 0 a17.4 17.4 0 1 0 -34.8 0zM823.7 1241.6 a17.4 17.4 0 1 0 34.8 0 a17.4 17.4 0 1 0 -34.8 0zM673.01 1328.6 a17.4 17.4 0 1 0 34.8 0 a17.4 17.4 0 1 0 -34.8 0zM1426.47 197.6 a17.4 17.4 0 1 0 34.8 0 a17.4 17.4 0 1 0 -34.8 0zM1577.17 284.6 a17.4 17.4 0 1 0 34.8 0 a17.4 17.4 0 1 0 -34.8 0zM1577.17 458.6 a17.4 17.4 0 1 0 34.8 0 a17.4 17.4 0 1 0 -34.8 0zM1426.47 545.6 a17.4 17.4 0 1 0 34.8 0 a17.4 17.4 0 1 0 -34.8 0zM1275.78 458.6 a17.4 17.4 0 1 0 34.8 0 a17.4 17.4 0 1 0 -34.8 0zM1275.78 284.6 a17.4 17.4 0 1 0 34.8 0 a17.4 17.4 0 1 0 -34.8 0zM1426.47 719.6 a17.4 17.4 0 1 0 34.8 0 a17.4 17.4 0 1 0 -34.8 0zM1275.78 806.6 a17.4 17.4 0 1 0 34.8 0 a17.4 17.4 0 1 0 -34.8 0zM1125.09 719.6 a17.4 17.4 0 1 0 34.8 0 a17.4 17.4 0 1 0 -34.8 0zM1125.09 545.6 a17.4 17.4 0 1 0 34.8 0 a17.4 17.4 0 1 0 -34.8 0zM1275.78 980.6 a17.4 17.4 0 1 0 34.8 0 a17.4 17.4 0 1 0 -34.8 0zM1426.47 1067.6 a17.4 17.4 0 1 0 34.8 0 a17.4 17.4 0 1 0 -34.8 0zM1426.47 1241.6 a17.4 17.4 0 1 0 34.8 0 a17.4 17.4 0 1 0 -34.8 0zM1275.78 1328.6 a17.4 17.4 0 1 0 34.8 0 a17.4 17.4 0 1 0 -34.8 0zM1125.09 1241.6 a17.4 17.4 0 1 0 34.8 0 a17.4 17.4 0 1 0 -34.8 0zM1125.09 1067.6 a17.4 17.4 0 1 0 34.8 0 a17.4 17.4 0 1 0 -34.8 0zM1577.17 -63.4 a17.4 17.4 0 1 0 34.8 0 a17.4 17.4 0 1 0 -34.8 0zM1727.86 23.6 a17.4 17.4 0 1 0 34.8 0 a17.4 17.4 0 1 0 -34.8 0zM1727.86 197.6 a17.4 17.4 0 1 0 34.8 0 a17.4 17.4 0 1 0 -34.8 0zM1426.47 23.6 a17.4 17.4 0 1 0 34.8 0 a17.4 17.4 0 1 0 -34.8 0zM1878.55 458.6 a17.4 17.4 0 1 0 34.8 0 a17.4 17.4 0 1 0 -34.8 0zM2029.25 545.6 a17.4 17.4 0 1 0 34.8 0 a17.4 17.4 0 1 0 -34.8 0zM2029.25 719.6 a17.4 17.4 0 1 0 34.8 0 a17.4 17.4 0 1 0 -34.8 0zM1878.55 806.6 a17.4 17.4 0 1 0 34.8 0 a17.4 17.4 0 1 0 -34.8 0zM1727.86 719.6 a17.4 17.4 0 1 0 34.8 0 a17.4 17.4 0 1 0 -34.8 0zM1727.86 545.6 a17.4 17.4 0 1 0 34.8 0 a17.4 17.4 0 1 0 -34.8 0zM1878.55 980.6 a17.4 17.4 0 1 0 34.8 0 a17.4 17.4 0 1 0 -34.8 0zM2029.25 1067.6 a17.4 17.4 0 1 0 34.8 0 a17.4 17.4 0 1 0 -34.8 0zM2029.25 1241.6 a17.4 17.4 0 1 0 34.8 0 a17.4 17.4 0 1 0 -34.8 0zM1878.55 1328.6 a17.4 17.4 0 1 0 34.8 0 a17.4 17.4 0 1 0 -34.8 0zM1727.86 1241.6 a17.4 17.4 0 1 0 34.8 0 a17.4 17.4 0 1 0 -34.8 0zM1727.86 1067.6 a17.4 17.4 0 1 0 34.8 0 a17.4 17.4 0 1 0 -34.8 0z" fill="rgba(255, 156, 85, 0.84)"></path></g><defs><mask id="SvgjsMask1117"><rect width="1920" height="1080" fill="#ffffff"></rect></mask></defs></svg>