<svg xmlns="http://www.w3.org/2000/svg" version="1.1" xmlns:xlink="http://www.w3.org/1999/xlink" xmlns:svgjs="http://svgjs.dev/svgjs" width="1920" height="1080" preserveAspectRatio="none" viewBox="0 0 1920 1080"><g mask="url(&quot;#SvgjsMask1114&quot;)" fill="none"><path d="M500.44 651.43L651.13 738.43L651.13 912.43L500.44 999.43L349.75 912.43L349.75 738.43zM651.13 390.43L801.82 477.43L801.82 651.43L651.13 738.43L500.44 651.43L500.44 477.43zM952.52 912.43L1103.21 999.43L1103.21 1173.43L952.52 1260.43L801.82 1173.43L801.82 999.43zM1253.9 390.43L1404.59 477.43L1404.59 651.43L1253.9 738.43L1103.21 651.43L1103.21 477.43zM1856.67 -131.57L2007.37 -44.57L2007.37 129.43L1856.67 216.43L1705.98 129.43L1705.98 -44.57zM2007.37 129.43L2158.06 216.43L2158.06 390.43L2007.37 477.43L1856.67 390.43L1856.67 216.43z" stroke="rgba(255, 156, 85, 0.84)" stroke-width="2"></path><path d="M483.04 651.43 a17.4 17.4 0 1 0 34.8 0 a17.4 17.4 0 1 0 -34.8 0zM633.73 738.43 a17.4 17.4 0 1 0 34.8 0 a17.4 17.4 0 1 0 -34.8 0zM633.73 912.43 a17.4 17.4 0 1 0 34.8 0 a17.4 17.4 0 1 0 -34.8 0zM483.04 999.43 a17.4 17.4 0 1 0 34.8 0 a17.4 17.4 0 1 0 -34.8 0zM332.35 912.43 a17.4 17.4 0 1 0 34.8 0 a17.4 17.4 0 1 0 -34.8 0zM332.35 738.43 a17.4 17.4 0 1 0 34.8 0 a17.4 17.4 0 1 0 -34.8 0zM633.73 390.43 a17.4 17.4 0 1 0 34.8 0 a17.4 17.4 0 1 0 -34.8 0zM784.42 477.43 a17.4 17.4 0 1 0 34.8 0 a17.4 17.4 0 1 0 -34.8 0zM784.42 651.43 a17.4 17.4 0 1 0 34.8 0 a17.4 17.4 0 1 0 -34.8 0zM483.04 477.43 a17.4 17.4 0 1 0 34.8 0 a17.4 17.4 0 1 0 -34.8 0zM935.12 912.43 a17.4 17.4 0 1 0 34.8 0 a17.4 17.4 0 1 0 -34.8 0zM1085.81 999.43 a17.4 17.4 0 1 0 34.8 0 a17.4 17.4 0 1 0 -34.8 0zM1085.81 1173.43 a17.4 17.4 0 1 0 34.8 0 a17.4 17.4 0 1 0 -34.8 0zM935.12 1260.43 a17.4 17.4 0 1 0 34.8 0 a17.4 17.4 0 1 0 -34.8 0zM784.42 1173.43 a17.4 17.4 0 1 0 34.8 0 a17.4 17.4 0 1 0 -34.8 0zM784.42 999.43 a17.4 17.4 0 1 0 34.8 0 a17.4 17.4 0 1 0 -34.8 0zM1236.5 390.43 a17.4 17.4 0 1 0 34.8 0 a17.4 17.4 0 1 0 -34.8 0zM1387.19 477.43 a17.4 17.4 0 1 0 34.8 0 a17.4 17.4 0 1 0 -34.8 0zM1387.19 651.43 a17.4 17.4 0 1 0 34.8 0 a17.4 17.4 0 1 0 -34.8 0zM1236.5 738.43 a17.4 17.4 0 1 0 34.8 0 a17.4 17.4 0 1 0 -34.8 0zM1085.81 651.43 a17.4 17.4 0 1 0 34.8 0 a17.4 17.4 0 1 0 -34.8 0zM1085.81 477.43 a17.4 17.4 0 1 0 34.8 0 a17.4 17.4 0 1 0 -34.8 0zM1839.27 -131.57 a17.4 17.4 0 1 0 34.8 0 a17.4 17.4 0 1 0 -34.8 0zM1989.97 -44.57 a17.4 17.4 0 1 0 34.8 0 a17.4 17.4 0 1 0 -34.8 0zM1989.97 129.43 a17.4 17.4 0 1 0 34.8 0 a17.4 17.4 0 1 0 -34.8 0zM1839.27 216.43 a17.4 17.4 0 1 0 34.8 0 a17.4 17.4 0 1 0 -34.8 0zM1688.58 129.43 a17.4 17.4 0 1 0 34.8 0 a17.4 17.4 0 1 0 -34.8 0zM1688.58 -44.57 a17.4 17.4 0 1 0 34.8 0 a17.4 17.4 0 1 0 -34.8 0zM2140.66 216.43 a17.4 17.4 0 1 0 34.8 0 a17.4 17.4 0 1 0 -34.8 0zM2140.66 390.43 a17.4 17.4 0 1 0 34.8 0 a17.4 17.4 0 1 0 -34.8 0zM1989.97 477.43 a17.4 17.4 0 1 0 34.8 0 a17.4 17.4 0 1 0 -34.8 0zM1839.27 390.43 a17.4 17.4 0 1 0 34.8 0 a17.4 17.4 0 1 0 -34.8 0z" fill="rgba(255, 156, 85, 0.84)"></path></g><defs><mask id="SvgjsMask1114"><rect width="1920" height="1080" fill="#ffffff"></rect></mask></defs></svg>