<svg xmlns="http://www.w3.org/2000/svg" version="1.1" xmlns:xlink="http://www.w3.org/1999/xlink" xmlns:svgjs="http://svgjs.dev/svgjs" width="2422" height="1080" preserveAspectRatio="none" viewBox="0 0 2422 1080"><g mask="url(&quot;#SvgjsMask1454&quot;)" fill="none"><path d="M241.27 618.85L363.39 689.35L363.39 830.35L241.27 900.85L119.16 830.35L119.16 689.35zM485.5 195.85L607.61 266.35L607.61 407.35L485.5 477.85L363.39 407.35L363.39 266.35zM485.5 1041.85L607.61 1112.35L607.61 1253.35L485.5 1323.85L363.39 1253.35L363.39 1112.35zM607.61 830.35L729.73 900.85L729.73 1041.85L607.61 1112.35L485.5 1041.85L485.5 900.85zM729.73 1041.85L851.84 1112.35L851.84 1253.35L729.73 1323.85L607.61 1253.35L607.61 1112.35zM973.95 195.85L1096.06 266.35L1096.06 407.35L973.95 477.85L851.84 407.35L851.84 266.35zM851.84 407.35L973.95 477.85L973.95 618.85L851.84 689.35L729.73 618.85L729.73 477.85zM973.95 618.85L1096.06 689.35L1096.06 830.35L973.95 900.85L851.84 830.35L851.84 689.35zM973.95 1041.85L1096.06 1112.35L1096.06 1253.35L973.95 1323.85L851.84 1253.35L851.84 1112.35zM1218.18 195.85L1340.29 266.35L1340.29 407.35L1218.18 477.85L1096.06 407.35L1096.06 266.35zM1218.18 618.85L1340.29 689.35L1340.29 830.35L1218.18 900.85L1096.06 830.35L1096.06 689.35zM1340.29 407.35L1462.4 477.85L1462.4 618.85L1340.29 689.35L1218.18 618.85L1218.18 477.85zM1462.4 618.85L1584.52 689.35L1584.52 830.35L1462.4 900.85L1340.29 830.35L1340.29 689.35zM1950.86 195.85L2072.97 266.35L2072.97 407.35L1950.86 477.85L1828.74 407.35L1828.74 266.35zM1950.86 618.85L2072.97 689.35L2072.97 830.35L1950.86 900.85L1828.74 830.35L1828.74 689.35zM1828.74 830.35L1950.86 900.85L1950.86 1041.85L1828.74 1112.35L1706.63 1041.85L1706.63 900.85zM1950.86 1041.85L2072.97 1112.35L2072.97 1253.35L1950.86 1323.85L1828.74 1253.35L1828.74 1112.35zM2072.97 -15.65L2195.08 54.85L2195.08 195.85L2072.97 266.35L1950.86 195.85L1950.86 54.85z" stroke="rgba(255, 128, 37, 0.71)" stroke-width="2"></path></g><defs><mask id="SvgjsMask1454"><rect width="2422" height="1080" fill="#ffffff"></rect></mask></defs></svg>