<svg xmlns="http://www.w3.org/2000/svg" version="1.1" xmlns:xlink="http://www.w3.org/1999/xlink" xmlns:svgjs="http://svgjs.dev/svgjs" width="1800" height="840" preserveAspectRatio="none" viewBox="0 0 1800 840"><g mask="url(&quot;#SvgjsMask1258&quot;)" fill="none"><path d="M41.42 -34.56L128.03 15.44L128.03 115.44L41.42 165.44L-45.19 115.44L-45.19 15.44zM214.63 265.44L301.24 315.44L301.24 415.44L214.63 465.44L128.03 415.44L128.03 315.44zM301.24 715.44L387.84 765.44L387.84 865.44L301.24 915.44L214.63 865.44L214.63 765.44zM474.45 715.44L561.05 765.44L561.05 865.44L474.45 915.44L387.84 865.44L387.84 765.44zM561.05 865.44L647.65 915.44L647.65 1015.44L561.05 1065.44L474.44 1015.44L474.44 915.44zM734.26 265.44L820.87 315.44L820.87 415.44L734.26 465.44L647.65 415.44L647.65 315.44zM820.87 715.44L907.47 765.44L907.47 865.44L820.87 915.44L734.26 865.44L734.26 765.44zM994.08 115.44L1080.68 165.44L1080.68 265.44L994.08 315.44L907.47 265.44L907.47 165.44zM994.08 715.44L1080.68 765.44L1080.68 865.44L994.08 915.44L907.47 865.44L907.47 765.44zM1080.68 -34.56L1167.29 15.44L1167.29 115.44L1080.68 165.44L994.07 115.44L994.07 15.44zM1080.68 265.44L1167.29 315.44L1167.29 415.44L1080.68 465.44L994.07 415.44L994.07 315.44zM1167.29 715.44L1253.89 765.44L1253.89 865.44L1167.29 915.44L1080.68 865.44L1080.68 765.44zM1253.89 -34.56L1340.5 15.44L1340.5 115.44L1253.89 165.44L1167.29 115.44L1167.29 15.44zM1340.5 115.44L1427.1 165.44L1427.1 265.44L1340.5 315.44L1253.89 265.44L1253.89 165.44zM1253.89 265.44L1340.5 315.44L1340.5 415.44L1253.89 465.44L1167.29 415.44L1167.29 315.44zM1340.5 415.44L1427.1 465.44L1427.1 565.44L1340.5 615.44L1253.89 565.44L1253.89 465.44zM1253.89 565.44L1340.5 615.44L1340.5 715.44L1253.89 765.44L1167.29 715.44L1167.29 615.44zM1427.1 -34.56L1513.71 15.44L1513.71 115.44L1427.1 165.44L1340.5 115.44L1340.5 15.44zM1427.1 265.44L1513.71 315.44L1513.71 415.44L1427.1 465.44L1340.5 415.44L1340.5 315.44zM1600.31 265.44L1686.92 315.44L1686.92 415.44L1600.31 465.44L1513.71 415.44L1513.71 315.44zM1600.31 865.44L1686.92 915.44L1686.92 1015.44L1600.31 1065.44L1513.71 1015.44L1513.71 915.44zM1860.13 415.44L1946.73 465.44L1946.73 565.44L1860.13 615.44L1773.52 565.44L1773.52 465.44zM1773.52 565.44L1860.13 615.44L1860.13 715.44L1773.52 765.44L1686.92 715.44L1686.92 615.44z" stroke="rgba(255, 128, 37, 0.87)" stroke-width="2"></path><path d="M31.42 -34.56 a10 10 0 1 0 20 0 a10 10 0 1 0 -20 0zM118.03 15.44 a10 10 0 1 0 20 0 a10 10 0 1 0 -20 0zM118.03 115.44 a10 10 0 1 0 20 0 a10 10 0 1 0 -20 0zM31.42 165.44 a10 10 0 1 0 20 0 a10 10 0 1 0 -20 0zM-55.19 115.44 a10 10 0 1 0 20 0 a10 10 0 1 0 -20 0zM-55.19 15.44 a10 10 0 1 0 20 0 a10 10 0 1 0 -20 0zM204.63 265.44 a10 10 0 1 0 20 0 a10 10 0 1 0 -20 0zM291.24 315.44 a10 10 0 1 0 20 0 a10 10 0 1 0 -20 0zM291.24 415.44 a10 10 0 1 0 20 0 a10 10 0 1 0 -20 0zM204.63 465.44 a10 10 0 1 0 20 0 a10 10 0 1 0 -20 0zM118.03 415.44 a10 10 0 1 0 20 0 a10 10 0 1 0 -20 0zM118.03 315.44 a10 10 0 1 0 20 0 a10 10 0 1 0 -20 0zM291.24 715.44 a10 10 0 1 0 20 0 a10 10 0 1 0 -20 0zM377.84 765.44 a10 10 0 1 0 20 0 a10 10 0 1 0 -20 0zM377.84 865.44 a10 10 0 1 0 20 0 a10 10 0 1 0 -20 0zM291.24 915.44 a10 10 0 1 0 20 0 a10 10 0 1 0 -20 0zM204.63 865.44 a10 10 0 1 0 20 0 a10 10 0 1 0 -20 0zM204.63 765.44 a10 10 0 1 0 20 0 a10 10 0 1 0 -20 0zM464.45 715.44 a10 10 0 1 0 20 0 a10 10 0 1 0 -20 0zM551.05 765.44 a10 10 0 1 0 20 0 a10 10 0 1 0 -20 0zM551.05 865.44 a10 10 0 1 0 20 0 a10 10 0 1 0 -20 0zM464.45 915.44 a10 10 0 1 0 20 0 a10 10 0 1 0 -20 0zM637.65 915.44 a10 10 0 1 0 20 0 a10 10 0 1 0 -20 0zM637.65 1015.44 a10 10 0 1 0 20 0 a10 10 0 1 0 -20 0zM551.05 1065.44 a10 10 0 1 0 20 0 a10 10 0 1 0 -20 0zM464.44 1015.44 a10 10 0 1 0 20 0 a10 10 0 1 0 -20 0zM464.44 915.44 a10 10 0 1 0 20 0 a10 10 0 1 0 -20 0zM724.26 265.44 a10 10 0 1 0 20 0 a10 10 0 1 0 -20 0zM810.87 315.44 a10 10 0 1 0 20 0 a10 10 0 1 0 -20 0zM810.87 415.44 a10 10 0 1 0 20 0 a10 10 0 1 0 -20 0zM724.26 465.44 a10 10 0 1 0 20 0 a10 10 0 1 0 -20 0zM637.65 415.44 a10 10 0 1 0 20 0 a10 10 0 1 0 -20 0zM637.65 315.44 a10 10 0 1 0 20 0 a10 10 0 1 0 -20 0zM810.87 715.44 a10 10 0 1 0 20 0 a10 10 0 1 0 -20 0zM897.47 765.44 a10 10 0 1 0 20 0 a10 10 0 1 0 -20 0zM897.47 865.44 a10 10 0 1 0 20 0 a10 10 0 1 0 -20 0zM810.87 915.44 a10 10 0 1 0 20 0 a10 10 0 1 0 -20 0zM724.26 865.44 a10 10 0 1 0 20 0 a10 10 0 1 0 -20 0zM724.26 765.44 a10 10 0 1 0 20 0 a10 10 0 1 0 -20 0zM984.08 115.44 a10 10 0 1 0 20 0 a10 10 0 1 0 -20 0zM1070.68 165.44 a10 10 0 1 0 20 0 a10 10 0 1 0 -20 0zM1070.68 265.44 a10 10 0 1 0 20 0 a10 10 0 1 0 -20 0zM984.08 315.44 a10 10 0 1 0 20 0 a10 10 0 1 0 -20 0zM897.47 265.44 a10 10 0 1 0 20 0 a10 10 0 1 0 -20 0zM897.47 165.44 a10 10 0 1 0 20 0 a10 10 0 1 0 -20 0zM984.08 715.44 a10 10 0 1 0 20 0 a10 10 0 1 0 -20 0zM1070.68 765.44 a10 10 0 1 0 20 0 a10 10 0 1 0 -20 0zM1070.68 865.44 a10 10 0 1 0 20 0 a10 10 0 1 0 -20 0zM984.08 915.44 a10 10 0 1 0 20 0 a10 10 0 1 0 -20 0zM1070.68 -34.56 a10 10 0 1 0 20 0 a10 10 0 1 0 -20 0zM1157.29 15.44 a10 10 0 1 0 20 0 a10 10 0 1 0 -20 0zM1157.29 115.44 a10 10 0 1 0 20 0 a10 10 0 1 0 -20 0zM984.07 115.44 a10 10 0 1 0 20 0 a10 10 0 1 0 -20 0zM984.07 15.44 a10 10 0 1 0 20 0 a10 10 0 1 0 -20 0zM1157.29 315.44 a10 10 0 1 0 20 0 a10 10 0 1 0 -20 0zM1157.29 415.44 a10 10 0 1 0 20 0 a10 10 0 1 0 -20 0zM1070.68 465.44 a10 10 0 1 0 20 0 a10 10 0 1 0 -20 0zM984.07 415.44 a10 10 0 1 0 20 0 a10 10 0 1 0 -20 0zM984.07 315.44 a10 10 0 1 0 20 0 a10 10 0 1 0 -20 0zM1157.29 715.44 a10 10 0 1 0 20 0 a10 10 0 1 0 -20 0zM1243.89 765.44 a10 10 0 1 0 20 0 a10 10 0 1 0 -20 0zM1243.89 865.44 a10 10 0 1 0 20 0 a10 10 0 1 0 -20 0zM1157.29 915.44 a10 10 0 1 0 20 0 a10 10 0 1 0 -20 0zM1243.89 -34.56 a10 10 0 1 0 20 0 a10 10 0 1 0 -20 0zM1330.5 15.44 a10 10 0 1 0 20 0 a10 10 0 1 0 -20 0zM1330.5 115.44 a10 10 0 1 0 20 0 a10 10 0 1 0 -20 0zM1243.89 165.44 a10 10 0 1 0 20 0 a10 10 0 1 0 -20 0zM1417.1 165.44 a10 10 0 1 0 20 0 a10 10 0 1 0 -20 0zM1417.1 265.44 a10 10 0 1 0 20 0 a10 10 0 1 0 -20 0zM1330.5 315.44 a10 10 0 1 0 20 0 a10 10 0 1 0 -20 0zM1243.89 265.44 a10 10 0 1 0 20 0 a10 10 0 1 0 -20 0zM1330.5 415.44 a10 10 0 1 0 20 0 a10 10 0 1 0 -20 0zM1243.89 465.44 a10 10 0 1 0 20 0 a10 10 0 1 0 -20 0zM1417.1 465.44 a10 10 0 1 0 20 0 a10 10 0 1 0 -20 0zM1417.1 565.44 a10 10 0 1 0 20 0 a10 10 0 1 0 -20 0zM1330.5 615.44 a10 10 0 1 0 20 0 a10 10 0 1 0 -20 0zM1243.89 565.44 a10 10 0 1 0 20 0 a10 10 0 1 0 -20 0zM1330.5 715.44 a10 10 0 1 0 20 0 a10 10 0 1 0 -20 0zM1157.29 615.44 a10 10 0 1 0 20 0 a10 10 0 1 0 -20 0zM1417.1 -34.56 a10 10 0 1 0 20 0 a10 10 0 1 0 -20 0zM1503.71 15.44 a10 10 0 1 0 20 0 a10 10 0 1 0 -20 0zM1503.71 115.44 a10 10 0 1 0 20 0 a10 10 0 1 0 -20 0zM1503.71 315.44 a10 10 0 1 0 20 0 a10 10 0 1 0 -20 0zM1503.71 415.44 a10 10 0 1 0 20 0 a10 10 0 1 0 -20 0zM1590.31 265.44 a10 10 0 1 0 20 0 a10 10 0 1 0 -20 0zM1676.92 315.44 a10 10 0 1 0 20 0 a10 10 0 1 0 -20 0zM1676.92 415.44 a10 10 0 1 0 20 0 a10 10 0 1 0 -20 0zM1590.31 465.44 a10 10 0 1 0 20 0 a10 10 0 1 0 -20 0zM1590.31 865.44 a10 10 0 1 0 20 0 a10 10 0 1 0 -20 0zM1676.92 915.44 a10 10 0 1 0 20 0 a10 10 0 1 0 -20 0zM1676.92 1015.44 a10 10 0 1 0 20 0 a10 10 0 1 0 -20 0zM1590.31 1065.44 a10 10 0 1 0 20 0 a10 10 0 1 0 -20 0zM1503.71 1015.44 a10 10 0 1 0 20 0 a10 10 0 1 0 -20 0zM1503.71 915.44 a10 10 0 1 0 20 0 a10 10 0 1 0 -20 0zM1850.13 415.44 a10 10 0 1 0 20 0 a10 10 0 1 0 -20 0zM1936.73 465.44 a10 10 0 1 0 20 0 a10 10 0 1 0 -20 0zM1936.73 565.44 a10 10 0 1 0 20 0 a10 10 0 1 0 -20 0zM1850.13 615.44 a10 10 0 1 0 20 0 a10 10 0 1 0 -20 0zM1763.52 565.44 a10 10 0 1 0 20 0 a10 10 0 1 0 -20 0zM1763.52 465.44 a10 10 0 1 0 20 0 a10 10 0 1 0 -20 0zM1850.13 715.44 a10 10 0 1 0 20 0 a10 10 0 1 0 -20 0zM1763.52 765.44 a10 10 0 1 0 20 0 a10 10 0 1 0 -20 0zM1676.92 715.44 a10 10 0 1 0 20 0 a10 10 0 1 0 -20 0zM1676.92 615.44 a10 10 0 1 0 20 0 a10 10 0 1 0 -20 0z" fill="rgba(255, 128, 37, 0.87)"></path><path d="M16.88 -8.92L92.23 34.58L92.23 121.58L16.88 165.08L-58.47 121.58L-58.47 34.58zM167.57 -8.92L242.92 34.58L242.92 121.58L167.57 165.08L92.23 121.58L92.23 34.58zM242.92 121.58L318.27 165.08L318.27 252.08L242.92 295.58L167.57 252.08L167.57 165.08zM167.57 252.08L242.92 295.58L242.92 382.58L167.57 426.08L92.23 382.58L92.23 295.58zM242.92 382.58L318.27 426.08L318.27 513.08L242.92 556.58L167.57 513.08L167.57 426.08zM167.57 513.08L242.92 556.58L242.92 643.58L167.57 687.08L92.23 643.58L92.23 556.58zM318.27 -8.92L393.61 34.58L393.61 121.58L318.27 165.08L242.92 121.58L242.92 34.58zM318.27 252.08L393.61 295.58L393.61 382.58L318.27 426.08L242.92 382.58L242.92 295.58zM393.61 382.58L468.96 426.08L468.96 513.08L393.61 556.58L318.27 513.08L318.27 426.08zM318.27 513.08L393.61 556.58L393.61 643.58L318.27 687.08L242.92 643.58L242.92 556.58zM393.61 643.58L468.96 687.08L468.96 774.08L393.61 817.58L318.27 774.08L318.27 687.08zM318.27 774.08L393.61 817.58L393.61 904.58L318.27 948.08L242.92 904.58L242.92 817.58zM468.96 -8.92L544.3 34.58L544.3 121.58L468.96 165.08L393.61 121.58L393.61 34.58zM468.96 252.08L544.3 295.58L544.3 382.58L468.96 426.08L393.61 382.58L393.61 295.58zM544.3 382.58L619.65 426.08L619.65 513.08L544.3 556.58L468.96 513.08L468.96 426.08zM468.96 513.08L544.3 556.58L544.3 643.58L468.96 687.08L393.61 643.58L393.61 556.58zM544.3 643.58L619.65 687.08L619.65 774.08L544.3 817.58L468.96 774.08L468.96 687.08zM468.96 774.08L544.3 817.58L544.3 904.58L468.96 948.08L393.61 904.58L393.61 817.58zM695 121.58L770.34 165.08L770.34 252.08L695 295.58L619.65 252.08L619.65 165.08zM619.65 252.08L695 295.58L695 382.58L619.65 426.08L544.3 382.58L544.3 295.58zM695 382.58L770.34 426.08L770.34 513.08L695 556.58L619.65 513.08L619.65 426.08zM695 643.58L770.34 687.08L770.34 774.08L695 817.58L619.65 774.08L619.65 687.08zM619.65 774.08L695 817.58L695 904.58L619.65 948.08L544.3 904.58L544.3 817.58zM770.34 -8.92L845.69 34.58L845.69 121.58L770.34 165.08L695 121.58L695 34.58zM770.34 252.08L845.69 295.58L845.69 382.58L770.34 426.08L695 382.58L695 295.58zM845.69 382.58L921.04 426.08L921.04 513.08L845.69 556.58L770.34 513.08L770.34 426.08zM921.04 -8.92L996.38 34.58L996.38 121.58L921.04 165.08L845.69 121.58L845.69 34.58zM996.38 382.58L1071.73 426.08L1071.73 513.08L996.38 556.58L921.04 513.08L921.04 426.08zM921.04 513.08L996.38 556.58L996.38 643.58L921.04 687.08L845.69 643.58L845.69 556.58zM921.04 774.08L996.38 817.58L996.38 904.58L921.04 948.08L845.69 904.58L845.69 817.58zM1147.08 121.58L1222.42 165.08L1222.42 252.08L1147.08 295.58L1071.73 252.08L1071.73 165.08zM1071.73 513.08L1147.08 556.58L1147.08 643.58L1071.73 687.08L996.38 643.58L996.38 556.58zM1071.73 774.08L1147.08 817.58L1147.08 904.58L1071.73 948.08L996.38 904.58L996.38 817.58zM1222.42 -8.92L1297.77 34.58L1297.77 121.58L1222.42 165.08L1147.08 121.58L1147.08 34.58zM1297.77 643.58L1373.11 687.08L1373.11 774.08L1297.77 817.58L1222.42 774.08L1222.42 687.08zM1222.42 774.08L1297.77 817.58L1297.77 904.58L1222.42 948.08L1147.08 904.58L1147.08 817.58zM1373.11 252.08L1448.46 295.58L1448.46 382.58L1373.11 426.08L1297.77 382.58L1297.77 295.58zM1448.46 382.58L1523.81 426.08L1523.81 513.08L1448.46 556.58L1373.11 513.08L1373.11 426.08zM1373.11 774.08L1448.46 817.58L1448.46 904.58L1373.11 948.08L1297.77 904.58L1297.77 817.58zM1523.81 -8.92L1599.15 34.58L1599.15 121.58L1523.81 165.08L1448.46 121.58L1448.46 34.58zM1523.81 252.08L1599.15 295.58L1599.15 382.58L1523.81 426.08L1448.46 382.58L1448.46 295.58zM1523.81 513.08L1599.15 556.58L1599.15 643.58L1523.81 687.08L1448.46 643.58L1448.46 556.58zM1599.15 643.58L1674.5 687.08L1674.5 774.08L1599.15 817.58L1523.81 774.08L1523.81 687.08zM1674.5 -8.92L1749.85 34.58L1749.85 121.58L1674.5 165.08L1599.15 121.58L1599.15 34.58zM1749.85 121.58L1825.19 165.08L1825.19 252.08L1749.85 295.58L1674.5 252.08L1674.5 165.08z" stroke="rgba(255, 212, 168, 1)" stroke-width="2"></path></g><defs><mask id="SvgjsMask1258"><rect width="1800" height="840" fill="#ffffff"></rect></mask></defs></svg>